<svg width="32" height="32" viewBox="0 0 32 32" xmlns="http://www.w3.org/2000/svg">
  <defs>
    <linearGradient id="bitcoinGradient" x1="0%" y1="0%" x2="100%" y2="100%">
      <stop offset="0%" style="stop-color:#F7931A;stop-opacity:1" />
      <stop offset="100%" style="stop-color:#FF8C00;stop-opacity:1" />
    </linearGradient>
  </defs>
  <circle cx="16" cy="16" r="16" fill="url(#bitcoinGradient)"/>
  <path fill="#FFFFFF" d="M20.1 14.7c.3-2.1-1.3-3.2-3.5-4l.7-2.8-1.7-.4-.7 2.8c-.5-.1-.9-.2-1.4-.3l.7-2.8-1.7-.4-.7 2.8c-.4-.1-.7-.2-1.1-.3v-.01l-2.4-.6-.5 1.8s1.3.3 1.3.3c.7.2.8.6.8 1l-.8 3.2c.05.01.1.03.18.06l-.18-.05-1.1 4.5c-.09.2-.3.5-.8.4 0 0-1.3-.3-1.3-.3l-.9 2 2.3.6c.4.1.8.2 1.2.3l-.7 2.9 1.7.4.7-2.8c.5.1.9.2 1.4.4l-.7 2.8 1.7.4.7-2.9c2.9.6 5.1.3 6.1-2.3.8-2.1-.04-3.4-1.6-4.2 1.1-.3 2-1 2.2-2.5zm-4 5.5c-.5 2.1-4.1 1-5.3.7l.95-3.8c1.2.3 4.9.9 4.4 3.1zm.5-5.6c-.5 2-3.5 1-4.5.7l.9-3.5c1 .2 4.1.7 3.6 2.8z"/>
</svg>