<svg xmlns="http://www.w3.org/2000/svg" viewBox="0 0 32 32">
  <g fill="none" fill-rule="evenodd">
    <circle cx="16" cy="16" r="16" fill="#E6007A"/>
    <path fill="#FFF" d="M16 6.4c1.325 0 2.4 1.075 2.4 2.4s-1.075 2.4-2.4 2.4-2.4-1.075-2.4-2.4 1.075-2.4 2.4-2.4zm0 10.4c1.325 0 2.4 1.075 2.4 2.4s-1.075 2.4-2.4 2.4-2.4-1.075-2.4-2.4 1.075-2.4 2.4-2.4zm0 5.2c1.325 0 2.4 1.075 2.4 2.4s-1.075 2.4-2.4 2.4-2.4-1.075-2.4-2.4 1.075-2.4 2.4-2.4zm-6.928-10.4c1.325 0 2.4 1.075 2.4 2.4s-1.075 2.4-2.4 2.4-2.4-1.075-2.4-2.4 1.075-2.4 2.4-2.4zm13.856 0c1.325 0 2.4 1.075 2.4 2.4s-1.075 2.4-2.4 2.4-2.4-1.075-2.4-2.4 1.075-2.4 2.4-2.4z"/>
  </g>
</svg>