<svg width="32" height="32" viewBox="0 0 32 32" xmlns="http://www.w3.org/2000/svg">
  <defs>
    <linearGradient id="rippleGradient" x1="0%" y1="0%" x2="100%" y2="100%">
      <stop offset="0%" style="stop-color:#23292F;stop-opacity:1" />
      <stop offset="100%" style="stop-color:#1A1F24;stop-opacity:1" />
    </linearGradient>
  </defs>
  <circle cx="16" cy="16" r="16" fill="url(#rippleGradient)"/>
  <path fill="#FFFFFF" d="M25.329 11.174c-1.7-1.7-3.992-2.635-6.423-2.635s-4.723.935-6.423 2.635c-1.7 1.7-2.635 3.992-2.635 6.423s.935 4.723 2.635 6.423c1.7 1.7 3.992 2.635 6.423 2.635s4.723-.935 6.423-2.635c1.7-1.7 2.635-3.992 2.635-6.423s-.935-4.723-2.635-6.423zm-6.423 11.481c-1.4 0-2.723-.545-3.717-1.539s-1.539-2.317-1.539-3.717.545-2.723 1.539-3.717 2.317-1.539 3.717-1.539 2.723.545 3.717 1.539 1.539 2.317 1.539 3.717-.545 2.723-1.539 3.717-2.317 1.539-3.717 1.539z"/>
  <circle cx="18.906" cy="17.597" r="2.058" fill="#23292F"/>
</svg>